<svg xmlns="http://www.w3.org/2000/svg" width="85" height="41" fill="none" viewBox="0 0 85 41"><path fill="#afb1b8" d="M13.146 12.403h-.003c-2.398 0-4.342 1.727-4.342 3.859v.002c0 2.131 1.944 3.859 4.342 3.859h.003c2.398 0 4.342-1.728 4.342-3.859v-.002c0-2.132-1.944-3.86-4.342-3.86M45.195 11.17c-.007-2.96-1.333-5.798-3.688-7.891S35.96.007 32.63 0c-3.332.005-6.526 1.184-8.882 3.277s-3.683 4.931-3.69 7.892v16.323s25.134-2.488 25.137-16.32zM0 32.85c.006 2.06.93 4.033 2.568 5.49s3.859 2.277 6.176 2.283c2.317-.006 4.537-.826 6.176-2.282 1.638-1.456 2.562-3.43 2.568-5.489V21.495S0 23.227 0 32.85m8.744 2.035c-.453 0-.895-.12-1.272-.343a2.1 2.1 0 0 1-.843-.913 1.83 1.83 0 0 1-.13-1.176c.088-.395.306-.758.626-1.042a2.4 2.4 0 0 1 1.172-.557 2.56 2.56 0 0 1 1.323.116c.419.154.777.415 1.028.75.252.334.386.727.386 1.13.001.268-.057.533-.172.78a2 2 0 0 1-.496.664c-.212.19-.465.34-.744.443a2.5 2.5 0 0 1-.878.155zM24.73 31.241v4.266h-.878V31.24zm1.7 1.822v.686h-1.94v-.686zm.205-1.822v.689H24.49v-.689zm4.013 2.033v.203q0 .486-.131.873a1.9 1.9 0 0 1-.372.659q-.24.27-.575.413a1.8 1.8 0 0 1-.735.143q-.402 0-.735-.143a1.65 1.65 0 0 1-.575-.413 1.9 1.9 0 0 1-.377-.66 2.7 2.7 0 0 1-.132-.872v-.203q0-.489.132-.873a1.9 1.9 0 0 1 .372-.659 1.6 1.6 0 0 1 .574-.416q.333-.143.735-.143.405 0 .735.143.335.144.575.416.243.273.375.66.134.383.134.872m-.887.203v-.208q0-.34-.062-.598a1.3 1.3 0 0 0-.181-.434.8.8 0 0 0-.293-.263.84.84 0 0 0-.396-.091q-.222 0-.395.09a.8.8 0 0 0-.29.264 1.3 1.3 0 0 0-.18.434 2.6 2.6 0 0 0-.06.598v.208q0 .336.06.597.062.258.183.437.12.176.293.266.172.09.395.091.222 0 .395-.09a.8.8 0 0 0 .29-.267 1.4 1.4 0 0 0 .18-.437q.06-.261.06-.597m3.741.914a.6.6 0 0 0-.035-.206.4.4 0 0 0-.123-.17 1 1 0 0 0-.255-.155 4 4 0 0 0-.425-.158 5 5 0 0 1-.55-.21 2.3 2.3 0 0 1-.458-.273 1.2 1.2 0 0 1-.31-.367 1 1 0 0 1-.112-.483 1 1 0 0 1 .118-.483q.117-.22.328-.375.21-.159.498-.243.29-.085.636-.085.47 0 .823.17.351.17.545.465.196.296.196.677h-.873a.66.66 0 0 0-.08-.328.54.54 0 0 0-.234-.226.84.84 0 0 0-.392-.082.9.9 0 0 0-.381.07.5.5 0 0 0-.228.185.45.45 0 0 0-.077.258q0 .109.053.196a.6.6 0 0 0 .164.164q.108.077.267.144.157.068.366.132.348.106.612.237.267.132.445.296.18.164.27.372t.09.472q0 .278-.108.498t-.313.372-.49.231q-.283.08-.635.08a2.4 2.4 0 0 1-.624-.083 1.9 1.9 0 0 1-.56-.255 1.3 1.3 0 0 1-.398-.433q-.15-.264-.15-.624h.882q0 .2.062.337a.56.56 0 0 0 .173.222.7.7 0 0 0 .27.123q.157.039.345.039a.9.9 0 0 0 .375-.065.46.46 0 0 0 .293-.436m3.384-3.15v4.266h-.876V31.24zm1.312 0v.689h-3.48v-.689zm3.364 3.58v.686H39.29v-.686zm-1.984-3.58v4.266H38.7V31.24zm1.688 1.737v.669H39.29v-.669zm.293-1.737v.689H39.29v-.689zm.515 0h1.591q.49 0 .84.147.356.146.546.433t.19.706q0 .343-.117.59a1.1 1.1 0 0 1-.325.406 1.7 1.7 0 0 1-.49.258l-.278.147h-1.383l-.005-.686h1.028a.8.8 0 0 0 .384-.082.54.54 0 0 0 .228-.228.7.7 0 0 0 .08-.34.8.8 0 0 0-.077-.355.5.5 0 0 0-.231-.228.86.86 0 0 0-.39-.08h-.712v3.578h-.879zm2.385 4.266-.973-1.901.929-.006.984 1.866v.04zm4.614-1.52h-1.087V33.3h1.087a.9.9 0 0 0 .41-.082.53.53 0 0 0 .232-.235.858.858 0 0 0 0-.691.6.6 0 0 0-.232-.264.76.76 0 0 0-.41-.1h-.782v3.578h-.879V31.24h1.661q.5 0 .859.182.36.178.55.495.19.316.19.724 0 .413-.19.714-.19.303-.55.466-.358.165-.859.164m5.069.834v.686h-2.27v-.686zm-1.984-3.58v4.266h-.879V31.24zm1.688 1.737v.669H51.87v-.669zm.293-1.737v.689H51.87v-.689zm2.481 0v4.266h-.876V31.24zm1.313 0v.689h-3.48v-.689zm3.363 3.58v.686h-2.27v-.686zm-1.983-3.58v4.266h-.88V31.24zM61 32.978v.669h-1.975v-.669zm.293-1.737v.689h-2.268v-.689zm.516 0h1.59q.49 0 .841.147.355.146.545.433t.19.706q0 .343-.117.59a1.1 1.1 0 0 1-.325.406 1.7 1.7 0 0 1-.49.258l-.277.147h-1.383l-.006-.686h1.028a.8.8 0 0 0 .384-.082.54.54 0 0 0 .229-.228.7.7 0 0 0 .079-.34.8.8 0 0 0-.076-.355.5.5 0 0 0-.232-.228.86.86 0 0 0-.39-.08h-.712v3.578h-.878zm2.384 4.266-.972-1.901.928-.006.985 1.866v.04zm3.68-1.116a.6.6 0 0 0-.035-.206.4.4 0 0 0-.123-.17 1 1 0 0 0-.255-.155 4 4 0 0 0-.425-.158 5 5 0 0 1-.55-.21 2.3 2.3 0 0 1-.458-.273 1.2 1.2 0 0 1-.31-.367 1 1 0 0 1-.111-.483 1 1 0 0 1 .117-.483q.117-.22.328-.375.21-.159.498-.243.29-.085.636-.085.47 0 .823.17.351.17.545.465t.196.677h-.873a.66.66 0 0 0-.08-.328.54.54 0 0 0-.234-.226.84.84 0 0 0-.392-.082.9.9 0 0 0-.38.07.5.5 0 0 0-.23.185.46.46 0 0 0-.076.258q0 .109.053.196a.6.6 0 0 0 .164.164q.108.077.267.144.158.068.366.132.348.106.612.237.266.132.446.296.178.164.27.372.09.208.09.472 0 .278-.108.498-.109.219-.314.372-.205.152-.49.231-.283.08-.635.08a2.4 2.4 0 0 1-.624-.083 1.9 1.9 0 0 1-.56-.255 1.3 1.3 0 0 1-.398-.433q-.15-.264-.15-.624h.883q0 .2.061.337a.56.56 0 0 0 .173.222.7.7 0 0 0 .27.123q.157.039.345.039a.9.9 0 0 0 .375-.065.46.46 0 0 0 .293-.436"/></svg>