<svg xmlns="http://www.w3.org/2000/svg" width="63" height="46" fill="none" viewBox="0 0 63 46"><path fill="#afb1b8" d="M4.757 37.969c.244.276.373.621.367.977a1.4 1.4 0 0 1-.131.676 1.56 1.56 0 0 1-.438.557 2.63 2.63 0 0 1-1.651.451H0V34.44h2.844a2.6 2.6 0 0 1 1.576.411c.184.14.33.319.425.52.096.2.139.42.127.639.016.341-.1.677-.33.946-.221.246-.526.417-.866.484.385.065.733.252.98.53m-3.406-.935h1.216c.276.019.55-.054.773-.206a.74.74 0 0 0 .207-.274.7.7 0 0 0 .054-.33.7.7 0 0 0-.055-.33.76.76 0 0 0-.203-.276 1.25 1.25 0 0 0-.796-.208H1.35zm2.108 2.374a.8.8 0 0 0 .224-.284.7.7 0 0 0 .063-.345.7.7 0 0 0-.066-.349.8.8 0 0 0-.228-.286 1.34 1.34 0 0 0-.826-.224H1.351v1.703h1.292c.29.015.578-.06.816-.215M10.57 40.63 8.99 38.21h-.595v2.42H7.033V34.44H9.61a2.7 2.7 0 0 1 1.793.526c.36.336.578.779.613 1.249s-.114.935-.421 1.313a2.15 2.15 0 0 1-1.229.63l1.685 2.473zm-2.176-3.263h1.113q1.16 0 1.16-.938a.85.85 0 0 0-.062-.375.9.9 0 0 0-.222-.32 1.28 1.28 0 0 0-.876-.252H8.381zM18.01 39.384h-2.712l-.479 1.246h-1.427l2.49-6.122h1.543l2.481 6.122H18.48zm-.363-.938-.991-2.613-.991 2.613zM27.323 40.63H25.97l-3.029-4.21v4.21h-1.348V34.44h1.348l3.03 4.234V34.44h1.35zM35.033 39.148c-.28.468-.705.848-1.223 1.092a4.3 4.3 0 0 1-1.9.39h-2.404V34.44h2.405a4.4 4.4 0 0 1 1.9.38c.517.24.943.616 1.222 1.08.278.504.423 1.06.423 1.625 0 .564-.145 1.12-.423 1.624M33.487 39c.385-.411.597-.935.597-1.478s-.212-1.066-.597-1.477a2.5 2.5 0 0 0-1.692-.526h-.938v4.007h.938A2.5 2.5 0 0 0 33.487 39M18.856 0s17.438 6.028 17.069 14.751v14.755S18.499 23.474 18.862 14.75zM51.46 26.051c3.294-2.075 7.103-3.36 11.08-3.738v-4.619c-4.582 1.617-8.47 4.55-11.08 8.357"/><path fill="#afb1b8" d="M49.482 27.443c2.695-4.97 7.368-8.805 13.058-10.717V3.418s-24.835 8.587-24.31 21.01v21.005s1.107-.384 2.848-1.104c0-.671 0-1.349.08-2.03.513-5.766 3.507-11.11 8.324-14.856"/><path fill="#afb1b8" d="M47.12 35.246a20 20 0 0 1 .869-4.3c-3 3.234-4.816 7.249-5.193 11.478-.037.4-.057.798-.066 1.21a75 75 0 0 0 4.776-2.305c-.44-2-.57-4.048-.386-6.083M48.107 35.322a19 19 0 0 0 .308 5.508c6.785-3.717 14.41-9.461 14.115-16.403v-.605c-4.848.497-9.383 2.437-12.91 5.523a19.3 19.3 0 0 0-1.513 5.977"/></svg>