<svg xmlns="http://www.w3.org/2000/svg" width="40" height="52" fill="none" viewBox="0 0 40 52"><path fill="#afb1b8" fill-rule="evenodd" d="M17.114 2.935h-.137c-.21-.013-.42-.018-.63-.023h-.455c-.397 0-.802.01-1.204.03a1 1 0 0 0-.092 0A28.3 28.3 0 0 0 4.08 5.625l-.432.208v22.142l1.012-.344c.888-.305 1.834-.58 2.813-.834a34.3 34.3 0 0 1 8.095-1.075v2.909c-.362.002-.713.012-1.065.03h-.084a32.4 32.4 0 0 0-6.228.956 31.6 31.6 0 0 0-7.42 2.892V4.112A29.7 29.7 0 0 1 8.555.946 29.8 29.8 0 0 1 15.892 0h.427c.511.013 1.01.036 1.478.071a21 21 0 0 1 3.655.583v2.863a22.6 22.6 0 0 0-3.542-.534l-.072-.006c-.247-.021-.494-.042-.725-.042m5.039 2.926c.635.049 1.292.072 1.958.072a31.5 31.5 0 0 0 7.713-.99A31.8 31.8 0 0 0 39.24 2.05v27.89a29.8 29.8 0 0 1-7.786 3.166 30 30 0 0 1-7.337.944 22.4 22.4 0 0 1-5.565-.656V5.322q.647.152 1.323.267a25 25 0 0 0 2.277.272m14.194.217-1.012.34q-1.397.469-2.813.842a34.3 34.3 0 0 1-8.406 1.078c-.66 0-1.268-.018-1.855-.056l-.806-.053v22.777l.693.06c.642.057 1.305.085 1.973.085a27 27 0 0 0 6.62-.857 27.8 27.8 0 0 0 5.173-1.86l.433-.208z" clip-rule="evenodd"/><path fill="#afb1b8" d="M2.737 42.212a1.5 1.5 0 0 0-1.125-.455 1.7 1.7 0 0 0-.65.122 1.463 1.463 0 0 0-.832.842c-.08.2-.12.413-.117.628v3.794c-.01.267.042.533.149.778.09.195.219.368.38.509.151.127.33.22.52.27q.279.077.567.078c.212.002.42-.043.612-.132a1.6 1.6 0 0 0 .96-1.465v-.424h-.992v.338a.9.9 0 0 1-.059.338.6.6 0 0 1-.144.214.697.697 0 0 1-.415.145.5.5 0 0 1-.465-.204.9.9 0 0 1-.132-.508v-3.538c-.006-.196.036-.39.122-.567a.51.51 0 0 1 .485-.229.53.53 0 0 1 .443.214.8.8 0 0 1 .165.509v.328h.981v-.387a1.8 1.8 0 0 0-.121-.664 1.6 1.6 0 0 0-.332-.534M8.629 42.17a1.77 1.77 0 0 0-1.128-.418c-.202 0-.403.037-.592.107q-.291.105-.524.31a1.6 1.6 0 0 0-.384.532c-.1.231-.15.482-.145.734v3.64c-.006.255.043.51.145.744.09.196.22.37.384.509.152.14.33.25.524.32q.287.105.592.107a1.7 1.7 0 0 0 1.128-.427c.158-.142.286-.315.374-.509.102-.234.151-.489.145-.745v-3.639a1.8 1.8 0 0 0-.145-.734 1.6 1.6 0 0 0-.374-.532m-.463 4.904a.65.65 0 0 1-.197.527.73.73 0 0 1-.934 0 .65.65 0 0 1-.197-.527v-3.639a.65.65 0 0 1 .197-.526.73.73 0 0 1 .934 0 .65.65 0 0 1 .197.526zM16.367 48.7v-6.89h-.953l-1.253 3.647h-.017l-1.263-3.646h-.943v6.888h.984v-4.19h.018l.963 2.962h.491l.972-2.962h.017v4.19zM21.958 42.294c-.151-.17-.343-.3-.556-.377a2.2 2.2 0 0 0-.714-.107h-1.462v6.89h.982v-2.691h.506c.306.014.61-.051.885-.188a1.43 1.43 0 0 0 .539-.527c.113-.183.19-.387.225-.6a5 5 0 0 0 .053-.783c.01-.33-.023-.662-.096-.984a1.47 1.47 0 0 0-.362-.633m-.506 2.1a.9.9 0 0 1-.09.359.55.55 0 0 1-.254.241 1 1 0 0 1-.463.087h-.447v-2.342h.505a.94.94 0 0 1 .443.086.56.56 0 0 1 .23.254c.054.121.083.252.086.384v.458c0 .16.01.326 0 .473zM26.608 41.81h-.805l-1.518 6.89h.982l.288-1.48h1.338l.289 1.48h.982zm-.906 4.471.483-2.497h.018l.48 2.497zM32.95 45.96h-.018l-1.482-4.15h-.944v6.89h.982v-4.143h.02l1.5 4.142h.923v-6.888h-.981zM38.948 41.81l-.79 2.74h-.02l-.79-2.74H36.31l1.348 3.978v2.911h.982v-2.911l1.348-3.977zM0 50.645h.473v1.327h.321v-1.328h.47v-.272H0zM3.977 50.372l-.62 1.6h.341l.132-.364h.637l.137.364h.35l-.636-1.6zm-.05.967.217-.593.217.593zM7.908 51.382h.37v.206a.6.6 0 0 1-.38.135.4.4 0 0 1-.34-.153.67.67 0 0 1-.118-.417q0-.534.46-.534a.34.34 0 0 1 .362.255l.316-.062q-.101-.469-.678-.47a.8.8 0 0 0-.559.206.78.78 0 0 0-.23.615.87.87 0 0 0 .205.6.78.78 0 0 0 .607.235.96.96 0 0 0 .678-.255v-.63h-.693zM11.922 50.372H11.6v1.6h1.12V51.7h-.797zM15.318 50.372h-.324v1.6h.324zM18.636 51.44l-.655-1.068h-.314v1.6h.301v-1.045l.643 1.045h.321v-1.6h-.296zM21.637 51.268h.797v-.273h-.797v-.35h.857v-.273h-1.181v1.6h1.214V51.7h-.89zM28.912 51.003h-.63v-.63h-.32v1.599h.32v-.7h.63v.7h.322v-1.6h-.322zM31.93 51.268h.8v-.273h-.8v-.35h.86v-.273H31.61v1.6h1.212V51.7h-.89zM36.023 51.268q.419-.065.42-.445a.38.38 0 0 0-.157-.356.9.9 0 0 0-.468-.094h-.678v1.599h.322v-.669h.063a.4.4 0 0 1 .2.036q.071.044.114.117l.349.508h.384l-.195-.312a1.1 1.1 0 0 0-.354-.384m-.324-.222h-.237v-.401h.253a.8.8 0 0 1 .326.038.21.21 0 0 1-.015.325.9.9 0 0 1-.327.038M39.11 51.268h.796v-.273h-.796v-.35h.86v-.273h-1.184v1.6H40V51.7h-.89z"/></svg>