<svg xmlns="http://www.w3.org/2000/svg" width="94" height="44" fill="none" viewBox="0 0 94 44"><path fill="#afb1b8" d="M47.425 20.642a2.95 2.95 0 0 1-.605-1.99V15.77q0-1.326.602-2.015.6-.69 2.065-.687 1.376 0 1.953.587c.42.499.625 1.11.578 1.725v.677h-1.64v-.686q.008-.338-.048-.672a.65.65 0 0 0-.235-.399.95.95 0 0 0-.594-.155 1 1 0 0 0-.625.164.77.77 0 0 0-.272.44 3.3 3.3 0 0 0-.065.713v3.499c-.026.337.047.675.21.982a.77.77 0 0 0 .328.239c.133.051.28.07.424.055a.9.9 0 0 0 .58-.159.7.7 0 0 0 .245-.425 4 4 0 0 0 .051-.7v-.71h1.641v.648a2.64 2.64 0 0 1-.567 1.812c-.377.428-1.02.642-1.964.642s-1.658-.228-2.062-.703M54.257 20.67q-.621-.67-.622-1.967V15.67q0-1.285.622-1.945.621-.66 2.079-.657 1.447 0 2.069.657.623.66.625 1.945v3.033q0 1.286-.632 1.965-.63.678-2.062.677c-.955 0-1.661-.228-2.08-.674m2.843-.727c.149-.28.216-.589.197-.897v-3.713a1.65 1.65 0 0 0-.193-.88.8.8 0 0 0-.335-.242.9.9 0 0 0-.433-.052.9.9 0 0 0-.434.053.8.8 0 0 0-.337.24c-.15.275-.217.578-.197.88v3.732c-.02.308.047.616.197.897.096.095.214.17.346.222a1.16 1.16 0 0 0 .843 0 1 1 0 0 0 .346-.222zM61.004 13.157h1.766l1.328 5.596 1.36-5.596h1.718l.174 8.077h-1.271l-.136-5.614-1.311 5.614h-1.02L62.255 15.6l-.126 5.634h-1.284zM69.33 13.157h2.752q2.378 0 2.378 2.293 0 2.197-2.504 2.194h-.937v3.59H69.32zm2.351 3.452c.168.018.338.005.5-.04.161-.043.31-.117.434-.215.195-.273.281-.594.245-.912a2.5 2.5 0 0 0-.082-.734.6.6 0 0 0-.125-.221.7.7 0 0 0-.214-.163 1.76 1.76 0 0 0-.758-.129h-.659v2.414zM76.91 13.157h1.824l1.872 8.077h-1.584l-.37-1.863h-1.627l-.38 1.863h-1.607zm1.559 5.279-.635-3.39-.636 3.39zM82.117 13.157h1.19l2.275 4.607v-4.607h1.41v8.077h-1.131l-2.29-4.81v4.81h-1.457zM90.295 18.154l-1.893-4.986h1.594l1.155 3.203 1.083-3.203h1.56l-1.869 4.986v3.08h-1.63zM50.048 24.765v.422h-1.386v3.282h-.581v-3.282h-1.393v-.422zM54.393 28.47h-.449a.2.2 0 0 1-.126-.036.2.2 0 0 1-.074-.085l-.401-.88H51.42l-.4.88a.24.24 0 0 1-.062.1.2.2 0 0 1-.126.035h-.448l1.699-3.704h.59zm-2.813-1.376h1.603l-.68-1.508a3 3 0 0 1-.125-.348q-.035.106-.064.196l-.062.155zM57.321 28.106q.16.006.32 0 .137-.013.271-.044.126-.027.245-.068.112-.04.228-.09v-.834h-.68a.14.14 0 0 1-.092-.03.1.1 0 0 1-.026-.03.1.1 0 0 1-.008-.037v-.284h1.319v1.42a2.6 2.6 0 0 1-.717.302q-.21.052-.425.076-.247.024-.496.023a2.6 2.6 0 0 1-.856-.137 2.1 2.1 0 0 1-.68-.388 1.8 1.8 0 0 1-.438-.586 1.85 1.85 0 0 1-.156-.769 1.9 1.9 0 0 1 .153-.774c.097-.22.247-.42.438-.587.194-.166.425-.297.68-.384.29-.095.6-.141.91-.138q.238 0 .472.032.208.03.404.094.18.059.34.147.156.087.296.194l-.163.228a.14.14 0 0 1-.055.051.2.2 0 0 1-.078.02.2.2 0 0 1-.105-.03 2 2 0 0 1-.167-.088 1.5 1.5 0 0 0-.227-.1 2 2 0 0 0-.313-.082 2.6 2.6 0 0 0-.431-.032 2 2 0 0 0-.656.103c-.189.065-.36.165-.5.293a1.3 1.3 0 0 0-.315.46 1.73 1.73 0 0 0 0 1.236c.074.174.19.333.34.466.139.127.308.227.495.293.216.064.445.09.673.074M62.736 28.047h1.855v.422H62.17v-3.704h.58zM66.52 28.47h-.58v-3.705h.58zM68.681 24.783a.3.3 0 0 1 .089.067l2.483 2.792a1 1 0 0 1 0-.132v-2.76h.506v3.72h-.292a.3.3 0 0 1-.126-.021.3.3 0 0 1-.091-.07l-2.48-2.79v2.881h-.486v-3.705h.302q.05 0 .095.017M76.036 24.765v.408h-2.058v1.223h1.668v.393h-1.668v1.264h2.058v.407H73.38v-3.695zM15.162 1.889l25.795 6.323V30.37l-25.795-6.32zM13.507 0v25.126l29.1 7.136V7.139z"/><path fill="#afb1b8" d="M29.104 43.926 0 36.784V11.66l29.104 7.14z"/><path fill="#afb1b8" d="m13.99 1.604 25.458 6.244-10.826 9.35-25.463-6.247zM13.507 0 0 11.661l29.104 7.138L42.608 7.14zM30.742 42.512l11.866-10.247-11.866-2.913z"/></svg>