<svg xmlns="http://www.w3.org/2000/svg" width="44" height="42" fill="none" viewBox="0 0 44 42"><path fill="#afb1b8" d="M6.726 40.402q.024 0 .046.009a.1.1 0 0 1 .039.024l.218.208c-.17.169-.379.304-.614.396a2.4 2.4 0 0 1-.87.142c-.28.005-.558-.04-.817-.133a1.8 1.8 0 0 1-.616-.374 1.7 1.7 0 0 1-.399-.578 1.9 1.9 0 0 1-.139-.742 1.724 1.724 0 0 1 .573-1.322c.186-.163.409-.291.654-.376.269-.09.555-.136.843-.133.267-.006.533.035.782.12.216.082.415.195.587.335l-.183.222a.2.2 0 0 1-.047.04.12.12 0 0 1-.073.017.2.2 0 0 1-.08-.023l-.097-.06-.137-.075a1.6 1.6 0 0 0-.43-.133 2 2 0 0 0-.325-.024 1.8 1.8 0 0 0-.605.1c-.18.063-.341.158-.475.28-.136.128-.24.28-.308.445a1.5 1.5 0 0 0-.111.587 1.5 1.5 0 0 0 .111.597q.102.248.303.443c.125.12.28.215.453.275.178.064.369.097.561.095q.167.003.333-.019a1.3 1.3 0 0 0 .72-.306.17.17 0 0 1 .103-.038M13.024 39.354c.004.251-.046.501-.147.737a1.6 1.6 0 0 1-.41.572 1.9 1.9 0 0 1-.645.375 2.66 2.66 0 0 1-1.658 0 1.9 1.9 0 0 1-.64-.376 1.7 1.7 0 0 1-.415-.578 1.92 1.92 0 0 1 0-1.476c.093-.216.234-.413.415-.58.182-.159.4-.282.64-.363a2.6 2.6 0 0 1 1.658 0c.242.085.461.214.644.376.179.165.319.36.411.571.101.238.151.489.147.742m-.572 0a1.6 1.6 0 0 0-.104-.592 1.22 1.22 0 0 0-.752-.723 1.9 1.9 0 0 0-1.205 0 1.3 1.3 0 0 0-.461.28 1.2 1.2 0 0 0-.295.443 1.74 1.74 0 0 0 0 1.184 1.21 1.21 0 0 0 .756.72c.388.127.816.127 1.205 0 .175-.061.332-.156.46-.277.131-.129.23-.28.292-.443.073-.19.108-.391.104-.592M17.321 39.975l.057.132q.031-.07.063-.132a1 1 0 0 1 .071-.13l1.393-2.201q.04-.058.08-.069a.4.4 0 0 1 .114-.012h.412v3.58h-.488V38.4a1 1 0 0 1 0-.124l-1.402 2.232a.2.2 0 0 1-.082.081.25.25 0 0 1-.12.03h-.079a.24.24 0 0 1-.12-.03.2.2 0 0 1-.081-.081l-1.443-2.246v2.873h-.471v-3.572h.411a.4.4 0 0 1 .115.012q.052.023.076.069l1.423 2.203q.042.06.071.128M22.564 39.797v1.34h-.545v-3.574h1.216q.347-.005.679.078c.176.044.34.12.48.223a.9.9 0 0 1 .272.35c.065.146.096.302.093.458q.003.237-.1.457a1 1 0 0 1-.295.358c-.14.107-.305.188-.483.236a2.3 2.3 0 0 1-.657.083zm0-.384h.66q.216.002.423-.054a.9.9 0 0 0 .305-.154.686.686 0 0 0 .25-.538.6.6 0 0 0-.054-.291.7.7 0 0 0-.19-.244 1.17 1.17 0 0 0-.734-.192h-.66zM29.893 41.142h-.43a.2.2 0 0 1-.12-.033.2.2 0 0 1-.072-.083l-.37-.864h-1.863l-.384.864a.203.203 0 0 1-.19.116h-.432l1.636-3.58h.567zm-2.7-1.329h1.539l-.65-1.457q-.074-.164-.122-.336l-.063.187q-.03.087-.06.152zM32.249 37.58q.049.023.081.064l2.386 2.698v-2.779h.488v3.58h-.272a.3.3 0 0 1-.112-.022.3.3 0 0 1-.087-.066l-2.383-2.696a1 1 0 0 1 0 .123v2.66h-.488v-3.58h.289a.3.3 0 0 1 .098.018M39.223 39.719v1.421h-.545V39.72l-1.508-2.156h.488a.2.2 0 0 1 .117.03q.045.036.074.081l.943 1.391q.057.089.099.166.04.078.068.151l.07-.154q.04-.084.093-.163l.93-1.4a.4.4 0 0 1 .07-.076.2.2 0 0 1 .118-.035h.494zM17.051 31.556q.357.039.72.066c3.679-1.43 6.791-3.77 8.948-6.728s3.261-6.403 3.177-9.903l-4.054-3.523c.824 3.727.438 7.58-1.114 11.128s-4.21 6.65-7.677 8.96"/><path fill="#afb1b8" d="m15.604 31.392.109.02c3.704-2.303 6.528-5.517 8.106-9.228s1.84-7.749.75-11.59l-5.775-5.017c2.335 4.124 3.276 8.74 2.71 13.31-.564 4.57-2.61 8.906-5.9 12.505M35.188 19.127c-.981 3.846-3.364 7.315-6.795 9.892a21.6 21.6 0 0 1-3.228 2.013c2.794-.713 5.361-1.974 7.505-3.686s3.807-3.829 4.86-6.187z"/><path fill="#afb1b8" d="m34.269 18.56-3.334-2.897c-.064 3.303-1.145 6.531-3.13 9.348-1.986 2.818-4.804 5.122-8.16 6.673h.015q1.124-.001 2.239-.116c3.137-1.113 5.909-2.883 8.067-5.153s3.637-4.968 4.303-7.855M16.086 3.461 12.108 0C8.552 1.194 5.494 3.293 3.333 6.022 1.173 8.752.011 11.984 0 15.296c.013 3.66 1.431 7.212 4.03 10.093 2.597 2.881 6.227 4.927 10.314 5.814 3.648-3.862 5.784-8.634 6.098-13.623.313-4.99-1.213-9.935-4.356-14.119M43.46 18.027c-.014-4.342-2.006-8.503-5.54-11.574S29.596 1.652 24.598 1.64a21.2 21.2 0 0 0-6.753 1.092L42.2 23.892a14.35 14.35 0 0 0 1.26-5.865"/></svg>