<svg style="position: absolute; width: 0; height: 0; overflow: hidden;" aria-hidden="true" version="1.1" xmlns="http://www.w3.org/2000/svg" xmlns:xlink="http://www.w3.org/1999/xlink">
    <style>
        .default-palette, .palette0 {color: currentColor;
            --color0: #afb1b8;
            --color1: #757575;
            --color2: #212121;
            --color3: #2196f3;
        }
    </style>
    <defs>
        <symbol id="twitter1" viewBox="0 0 20 20" fill="none">
            <path fill="var(--color0, #afb1b8)" d="M20 3.799a8.6 8.6 0 0 1-2.363 0.647 4.08 4.08 0 0 0 1.804-2.266 8.2 8.2 0 0 1-2.6 0.992 4.099 4.099 0 0 0-7.091 2.805c0 0.325 0.027 0.638 0.095 0.935-3.409-0.166-6.425-1.8-8.451-4.288A4.13 4.13 0 0 0 0.83 4.695c0 1.42 0.732 2.679 1.822 3.407A4.05 4.05 0 0 1 0.8 7.597v0.045a4.12 4.12 0 0 0 3.285 4.03 4 4 0 0 1-1.075 0.134c-0.262 0-0.527-0.015-0.776-0.07 0.531 1.624 2.039 2.818 3.831 2.856a8.24 8.24 0 0 1-5.084 1.75A8 8 0 0 1 0 16.284a11.54 11.54 0 0 0 6.29 1.84c7.545 0 11.67-6.25 11.67-11.667q0-0.272-0.015-0.53A8.2 8.2 0 0 0 20 3.798" />
        </symbol>
        <symbol id="smartphone" viewBox="0 0 10 16" fill="var(--color1, #757575)">
            <path d="M8.5 0h-7C0.673 0 0 0.673 0 1.5v13C0 15.327 0.673 16 1.5 16h7c0.827 0 1.5-0.673 1.5-1.5v-13C10 0.673 9.327 0 8.5 0M1.5 1h7A0.5 0.5 0 0 1 9 1.5V12H1V1.5A0.5 0.5 0 0 1 1.5 1M8.5 15h-7A0.5 0.5 0 0 1 1 14.5V13h8v1.5A0.5 0.5 0 0 1 8.5 15" />
            <path d="M2.354 13.739a0.445 0.445 0 0 1 0 0.66 0.525 0.525 0 0 1-0.708 0 0.445 0.445 0 0 1 0-0.66 0.525 0.525 0 0 1 0.708 0" />
        </symbol>
        <symbol id="linkedin1" viewBox="0 0 20 20" fill="none">
            <path fill="var(--color0, #afb1b8)" d="M19.995 20H20v-7.336c0-3.588-0.772-6.352-4.967-6.352-2.017 0-3.37 1.106-3.923 2.156h-0.058V6.647H7.074v13.352h4.142v-6.611c0-1.741 0.33-3.425 2.486-3.425 2.124 0 2.156 1.987 2.156 3.536V20zM0.33 6.647h4.147V20H0.33zM2.402 0A2.4 2.4 0 0 0 0 2.402c0 1.326 1.076 2.424 2.402 2.424s2.401-1.098 2.401-2.424A2.403 2.403 0 0 0 2.402 0" />
            <defs>
                <clipPath id="a">
                    <path fill="#fff" d="M0 0h20v20H0z" />
                </clipPath>
            </defs>
        </symbol>
        <symbol id="instagram2" viewBox="0 0 20 20" fill="none">
            <g fill="var(--color0, #afb1b8)" clip-path="url(#a)">
                <path d="M19.98 5.88c-0.046-1.063-0.218-1.793-0.464-2.426a4.9 4.9 0 0 0-1.157-1.774 4.9 4.9 0 0 0-1.77-1.153c-0.637-0.246-1.363-0.417-2.426-0.464C13.093 0.012 12.753 0 10.037 0 7.322 0 6.982 0.012 5.915 0.059 4.853 0.105 4.122 0.277 3.49 0.523A4.9 4.9 0 0 0 1.715 1.68 4.9 4.9 0 0 0 0.563 3.45C0.316 4.087 0.145 4.813 0.098 5.876c-0.051 1.07-0.063 1.41-0.063 4.126 0 2.715 0.012 3.055 0.059 4.122 0.047 1.063 0.219 1.793 0.465 2.426a4.9 4.9 0 0 0 1.156 1.774c0.5 0.508 1.106 0.902 1.77 1.152 0.637 0.247 1.364 0.419 2.426 0.465C6.978 19.988 7.318 20 10.033 20c2.716 0 3.056-0.012 4.122-0.059 1.063-0.046 1.793-0.218 2.426-0.464a5.12 5.12 0 0 0 2.927-2.927c0.246-0.637 0.418-1.364 0.465-2.426 0.047-1.067 0.058-1.407 0.058-4.122s-4e-3-3.055-0.05-4.122M18.181 14.046c-0.044 0.977-0.208 1.504-0.344 1.856a3.32 3.32 0 0 1-1.9 1.898c-0.35 0.137-0.882 0.301-1.855 0.344-1.055 0.047-1.371 0.059-4.04 0.059s-2.989-0.012-4.04-0.059c-0.977-0.043-1.504-0.207-1.856-0.344a3.1 3.1 0 0 1-1.148-0.746 3.1 3.1 0 0 1-0.747-1.148c-0.136-0.352-0.3-0.883-0.343-1.856-0.047-1.055-0.059-1.372-0.059-4.04s0.012-2.99 0.059-4.04c0.043-0.977 0.207-1.504 0.343-1.856A3.04 3.04 0 0 1 3 2.965 3.1 3.1 0 0 1 4.15 2.219c0.35-0.137 0.882-0.3 1.855-0.344 1.055-0.046 1.372-0.058 4.04-0.058 2.672 0 2.989 0.012 4.04 0.058 0.977 0.043 1.504 0.207 1.856 0.344 0.433 0.16 0.828 0.414 1.148 0.746 0.332 0.325 0.586 0.715 0.747 1.15 0.136 0.35 0.3 0.882 0.343 1.855 0.047 1.055 0.059 1.371 0.059 4.04s-0.012 2.98-0.059 4.036" />
                <path d="M10.037 4.864A5.14 5.14 0 0 0 4.9 10.002a5.139 5.139 0 0 0 10.276 0 5.14 5.14 0 0 0-5.138-5.138M10.038 13.334a3.333 3.333 0 1 1 1e-3-6.666 3.333 3.333 0 0 1 0 6.667M16.578 4.661a1.2 1.2 0 1 1-2.4 0 1.2 1.2 0 0 1 2.4 0" />
            </g>
        </symbol>
        <symbol id="group6" viewBox="0 0 94 44" fill="var(--color0, #afb1b8)">
            <path d="M47.425 20.642a2.95 2.95 0 0 1-0.605-1.99V15.77q0-1.326 0.602-2.015 0.6-0.69 2.065-0.687 1.376 0 1.953 0.587c0.42 0.499 0.625 1.11 0.578 1.725v0.677h-1.64v-0.686q8e-3-0.338-0.048-0.672a0.65 0.65 0 0 0-0.235-0.399 0.95 0.95 0 0 0-0.594-0.155 1 1 0 0 0-0.625 0.164 0.77 0.77 0 0 0-0.272 0.44 3.3 3.3 0 0 0-0.065 0.713v3.499c-0.026 0.337 0.047 0.675 0.21 0.982a0.77 0.77 0 0 0 0.328 0.239c0.133 0.051 0.28 0.07 0.424 0.055a0.9 0.9 0 0 0 0.58-0.159 0.7 0.7 0 0 0 0.245-0.425 4 4 0 0 0 0.051-0.7v-0.71h1.641v0.648a2.64 2.64 0 0 1-0.567 1.812c-0.377 0.428-1.02 0.642-1.964 0.642s-1.658-0.228-2.062-0.703M54.257 20.67q-0.621-0.67-0.622-1.967V15.67q0-1.285 0.622-1.945 0.621-0.66 2.079-0.657 1.447 0 2.069 0.657 0.623 0.66 0.625 1.945v3.033q0 1.286-0.632 1.965-0.63 0.678-2.062 0.677c-0.955 0-1.661-0.228-2.08-0.674M57.099 19.944c0.149-0.28 0.216-0.589 0.197-0.897v-3.713a1.65 1.65 0 0 0-0.193-0.88 0.8 0.8 0 0 0-0.335-0.242 0.9 0.9 0 0 0-0.433-0.052 0.9 0.9 0 0 0-0.434 0.053 0.8 0.8 0 0 0-0.337 0.24c-0.15 0.275-0.217 0.578-0.197 0.88v3.732c-0.02 0.308 0.047 0.616 0.197 0.897 0.096 0.095 0.214 0.17 0.346 0.222a1.16 1.16 0 0 0 0.843 0 1 1 0 0 0 0.346-0.24zM61.004 13.157h1.766l1.328 5.596 1.36-5.596h1.718l0.174 8.077h-1.271l-0.136-5.614-1.311 5.614h-1.02L62.255 15.6l-0.126 5.634h-1.284zM69.33 13.157h2.752q2.378 0 2.378 2.293 0 2.197-2.504 2.194h-0.937v3.59H69.32zM71.681 16.609c0.168 0.018 0.338 5e-3 0.5-0.04 0.161-0.043 0.31-0.117 0.434-0.215 0.195-0.273 0.281-0.594 0.245-0.912a2.5 2.5 0 0 0-0.082-0.734 0.6 0.6 0 0 0-0.125-0.221 0.7 0.7 0 0 0-0.214-0.163 1.76 1.76 0 0 0-0.758-0.129h-0.659v2.414zM76.91 13.157h1.824l1.872 8.077h-1.584l-0.37-1.863h-1.627l-0.38 1.863h-1.607zM78.469 18.436l-0.635-3.39-0.636 3.39zM82.117 13.157h1.19l2.275 4.607v-4.607h1.41v8.077h-1.131l-2.29-4.81v4.81h-1.457zM90.295 18.154l-1.893-4.986h1.594l1.155 3.203 1.083-3.203h1.56l-1.869 4.986v3.08h-1.63zM50.048 24.765v0.422h-1.386v3.282h-0.581v-3.282h-1.393v-0.422zM54.393 28.47h-0.449a0.2 0.2 0 0 1-0.126-0.036 0.2 0.2 0 0 1-0.074-0.085l-0.401-0.88H51.42l-0.4 0.88a0.24 0.24 0 0 1-0.062 0.1 0.2 0.2 0 0 1-0.126 0.035h-0.448l1.699-3.704h0.59zM51.58 27.094h1.603l-0.68-1.508a3 3 0 0 1-0.125-0.348q-0.035 0.106-0.064 0.196l-0.062 0.155zM57.321 28.106q0.16 6e-3 0.32 0 0.137-0.013 0.271-0.044 0.126-0.027 0.245-0.068 0.112-0.04 0.228-0.09V27.07h-0.68a0.14 0.14 0 0 1-0.092-0.03 0.1 0.1 0 0 1-0.026-0.03 0.1 0.1 0 0 1-8e-3-0.037v-0.284h1.319v1.42a2.6 2.6 0 0 1-0.717 0.302q-0.21 0.052-0.425 0.076-0.247 0.024-0.496 0.023a2.6 2.6 0 0 1-0.856-0.137 2.1 2.1 0 0 1-0.68-0.388 1.8 1.8 0 0 1-0.438-0.586 1.85 1.85 0 0 1-0.156-0.769 1.9 1.9 0 0 1 0.153-0.774c0.097-0.22 0.247-0.42 0.438-0.587 0.194-0.166 0.425-0.297 0.68-0.384 0.29-0.095 0.6-0.141 0.91-0.138q0.238 0 0.472 0.032 0.208 0.03 0.404 0.094 0.18 0.059 0.34 0.147 0.156 0.087 0.296 0.194l-0.163 0.228a0.14 0.14 0 0 1-0.055 0.051 0.2 0.2 0 0 1-0.078 0.02 0.2 0.2 0 0 1-0.105-0.03 2 2 0 0 1-0.167-0.088 1.5 1.5 0 0 0-0.227-0.1 2 2 0 0 0-0.313-0.082 2.6 2.6 0 0 0-0.431-0.032 2 2 0 0 0-0.656 0.103c-0.189 0.065-0.36 0.165-0.5 0.293a1.3 1.3 0 0 0-0.315 0.46 1.73 1.73 0 0 0 0 1.236c0.074 0.174 0.19 0.333 0.34 0.466 0.139 0.127 0.308 0.227 0.495 0.293 0.216 0.064 0.445 0.09 0.673 0.074M62.736 28.047h1.855v0.422H62.17v-3.704h0.58zM66.52 28.47h-0.58v-3.705h0.58zM68.681 24.783a0.3 0.3 0 0 1 0.089 0.067l2.483 2.792a1 1 0 0 1 0-0.132v-2.76h0.506v3.72h-0.292a0.3 0.3 0 0 1-0.126-0.021 0.3 0.3 0 0 1-0.091-0.07l-2.48-2.79v2.881h-0.486v-3.705h0.302q0.05 0 0.095 0.017M76.036 24.765v0.408h-2.058v1.223h1.668v0.393h-1.668v1.264h2.058v0.407H73.38v-3.695zM15.162 1.889 40.957 8.212V30.37l-25.795-6.32zM13.507 0v25.126l29.1 7.136V7.139z" />
            <path d="M29.104 43.926 0 36.784V11.66l29.104 7.14z" />
            <path d="M13.99 1.604 39.448 7.848l-10.826 9.35-25.463-6.247zM13.507 0 0 11.661l29.104 7.138L42.608 7.14zM30.742 42.512 42.608 32.265 30.742 29.352z" />
        </symbol>
        <symbol id="group5" viewBox="0 0 63 46" fill="var(--color0, #afb1b8)">
            <path d="M4.757 37.969c0.244 0.276 0.373 0.621 0.367 0.977a1.4 1.4 0 0 1-0.131 0.676 1.56 1.56 0 0 1-0.438 0.557 2.63 2.63 0 0 1-1.651 0.451H0v-6.19h2.844a2.6 2.6 0 0 1 1.576 0.411c0.184 0.14 0.33 0.319 0.425 0.52 0.096 0.2 0.139 0.42 0.127 0.639 0.016 0.341-0.1 0.677-0.33 0.946-0.221 0.246-0.526 0.417-0.866 0.484 0.385 0.065 0.733 0.252 0.98 0.53M1.35 37.035h1.216c0.276 0.019 0.55-0.054 0.773-0.206a0.74 0.74 0 0 0 0.207-0.274 0.7 0.7 0 0 0 0.054-0.33 0.7 0.7 0 0 0-0.055-0.33 0.76 0.76 0 0 0-0.203-0.276 1.25 1.25 0 0 0-0.796-0.208H1.35zM3.458 39.409a0.8 0.8 0 0 0 0.224-0.284 0.7 0.7 0 0 0 0.063-0.345 0.7 0.7 0 0 0-0.066-0.349 0.8 0.8 0 0 0-0.228-0.286 1.34 1.34 0 0 0-0.826-0.224H1.351v1.703h1.292c0.29 0.015 0.578-0.06 0.816-0.215M10.57 40.63 8.99 38.21H8.395v2.42H7.033v-6.19H9.61a2.7 2.7 0 0 1 1.793 0.526c0.36 0.336 0.578 0.779 0.613 1.249s-0.114 0.935-0.421 1.313a2.15 2.15 0 0 1-1.229 0.63l1.685 2.473zM8.394 37.367h1.113q1.16 0 1.16-0.938a0.85 0.85 0 0 0-0.062-0.375 0.9 0.9 0 0 0-0.222-0.32 1.28 1.28 0 0 0-0.876-0.252H8.381zM18.01 39.384h-2.712l-0.479 1.246h-1.427l2.49-6.122h1.543l2.481 6.122H18.48zM17.647 38.446l-0.991-2.613-0.991 2.613zM27.323 40.63H25.97l-3.029-4.21v4.21h-1.348v-6.19h1.348l3.03 4.234V34.44h1.35zM35.033 39.148c-0.28 0.468-0.705 0.848-1.223 1.092a4.3 4.3 0 0 1-1.9 0.39h-2.404v-6.19h2.405a4.4 4.4 0 0 1 1.9 0.38c0.517 0.24 0.943 0.616 1.222 1.08 0.278 0.504 0.423 1.06 0.423 1.625 0 0.564-0.145 1.12-0.423 1.624M33.487 39c0.385-0.411 0.597-0.935 0.597-1.478s-0.212-1.066-0.597-1.477a2.5 2.5 0 0 0-1.692-0.526h-0.938v4.007h0.938A2.5 2.5 0 0 0 33.487 39M18.856 0c0 0 17.438 6.028 17.069 14.751v14.755c0 0-17.426-6.032-17.063-14.756zM51.46 26.051c3.294-2.075 7.103-3.36 11.08-3.738v-4.619c-4.582 1.617-8.47 4.55-11.08 8.357" />
            <path d="M49.482 27.443c2.695-4.97 7.368-8.805 13.058-10.717V3.418c0 0-24.835 8.587-24.31 21.01v21.005c0 0 1.107-0.384 2.848-1.104 0-0.671 0-1.349 0.08-2.03 0.513-5.766 3.507-11.11 8.324-14.856" />
            <path d="M47.12 35.246a20 20 0 0 1 0.869-4.3c-3 3.234-4.816 7.249-5.193 11.478-0.037 0.4-0.057 0.798-0.066 1.21a75 75 0 0 0 4.776-2.305c-0.44-2-0.57-4.048-0.386-6.083M48.107 35.322a19 19 0 0 0 0.308 5.508c6.785-3.717 14.41-9.461 14.115-16.403v-0.605c-4.848 0.497-9.383 2.437-12.91 5.523a19.3 19.3 0 0 0-1.513 5.977" />
        </symbol>
        <symbol id="group4" viewBox="0 0 85 41" fill="none">
            <path fill="var(--color0, #afb1b8)" d="M13.146 12.403h-3e-3c-2.398 0-4.342 1.727-4.342 3.859v2e-3c0 2.131 1.944 3.859 4.342 3.859h3e-3c2.398 0 4.342-1.728 4.342-3.859v-2e-3c0-2.132-1.944-3.86-4.342-3.86M45.195 11.17c-7e-3-2.96-1.333-5.798-3.688-7.891S35.96 7e-3 32.63 0c-3.332 5e-3-6.526 1.184-8.882 3.277s-3.683 4.931-3.69 7.892v16.323c0 0 25.134-2.488 25.137-16.322zM0 32.85c6e-3 2.06 0.93 4.033 2.568 5.49s3.859 2.277 6.176 2.283c2.317-6e-3 4.537-0.826 6.176-2.282 1.638-1.456 2.562-3.43 2.568-5.489V21.495c0 0-17.488 1.732-17.488 11.355M8.744 34.885c-0.453 0-0.895-0.12-1.272-0.343a2.1 2.1 0 0 1-0.843-0.913 1.83 1.83 0 0 1-0.13-1.176c0.088-0.395 0.306-0.758 0.626-1.042a2.4 2.4 0 0 1 1.172-0.557 2.56 2.56 0 0 1 1.323 0.116c0.419 0.154 0.777 0.415 1.028 0.75 0.252 0.334 0.386 0.727 0.386 1.13 1e-3 0.268-0.057 0.533-0.172 0.78a2 2 0 0 1-0.496 0.664c-0.212 0.19-0.465 0.34-0.744 0.443a2.5 2.5 0 0 1-0.878 0.148zM24.73 31.241v4.266h-0.878V31.24zM26.43 33.063v0.686h-1.94v-0.686zM26.635 31.241v0.689H24.49v-0.689zM30.648 33.274v0.203q0 0.486-0.131 0.873a1.9 1.9 0 0 1-0.372 0.659q-0.24 0.27-0.575 0.413a1.8 1.8 0 0 1-0.735 0.143q-0.402 0-0.735-0.143a1.65 1.65 0 0 1-0.575-0.413 1.9 1.9 0 0 1-0.377-0.66 2.7 2.7 0 0 1-0.132-0.872v-0.203q0-0.489 0.132-0.873a1.9 1.9 0 0 1 0.372-0.659 1.6 1.6 0 0 1 0.574-0.416q0.333-0.143 0.735-0.143 0.405 0 0.735 0.143 0.335 0.144 0.575 0.416 0.243 0.273 0.375 0.66 0.134 0.383 0.134 0.872M29.761 33.477v-0.208q0-0.34-0.062-0.598a1.3 1.3 0 0 0-0.181-0.434 0.8 0.8 0 0 0-0.293-0.263 0.84 0.84 0 0 0-0.396-0.091q-0.222 0-0.395 0.09a0.8 0.8 0 0 0-0.29 0.264 1.3 1.3 0 0 0-0.18 0.434 2.6 2.6 0 0 0-0.06 0.598v0.208q0 0.336 0.06 0.597 0.062 0.258 0.183 0.437 0.12 0.176 0.293 0.266 0.172 0.09 0.395 0.091 0.222 0 0.395-0.09a0.8 0.8 0 0 0 0.29-0.267 1.4 1.4 0 0 0 0.18-0.437q0.06-0.261 0.06-0.597M33.501 34.391a0.6 0.6 0 0 0-0.035-0.206 0.4 0.4 0 0 0-0.123-0.17 1 1 0 0 0-0.255-0.155 4 4 0 0 0-0.425-0.158 5 5 0 0 1-0.55-0.21 2.3 2.3 0 0 1-0.458-0.273 1.2 1.2 0 0 1-0.31-0.367 1 1 0 0 1-0.112-0.483 1 1 0 0 1 0.118-0.483q0.117-0.22 0.328-0.375 0.21-0.159 0.498-0.243 0.29-0.085 0.636-0.085 0.47 0 0.823 0.17 0.351 0.17 0.545 0.465 0.196 0.296 0.196 0.677h-0.873a0.66 0.66 0 0 0-0.08-0.328 0.54 0.54 0 0 0-0.234-0.226 0.84 0.84 0 0 0-0.392-0.082 0.9 0.9 0 0 0-0.381 0.07 0.5 0.5 0 0 0-0.228 0.185 0.45 0.45 0 0 0-0.077 0.258q0 0.109 0.053 0.196a0.6 0.6 0 0 0 0.164 0.164q0.108 0.077 0.267 0.144 0.157 0.068 0.366 0.132 0.348 0.106 0.612 0.237 0.267 0.132 0.445 0.296 0.18 0.164 0.27 0.372t0.09 0.472q0 0.278-0.108 0.498t-0.313 0.372-0.49 0.231q-0.283 0.08-0.635 0.08a2.4 2.4 0 0 1-0.624-0.083 1.9 1.9 0 0 1-0.56-0.255 1.3 1.3 0 0 1-0.398-0.433q-0.15-0.264-0.15-0.624h0.882q0 0.2 0.062 0.337a0.56 0.56 0 0 0 0.173 0.222 0.7 0.7 0 0 0 0.27 0.123q0.157 0.039 0.345 0.039a0.9 0.9 0 0 0 0.375-0.065 0.46 0.46 0 0 0 0.293-0.436M36.885 31.241v4.266h-0.876V31.24zM38.197 31.241v0.689h-3.48v-0.689zM41.561 34.821v0.686H39.29v-0.686zM39.577 31.241v4.266H38.7V31.24zM41.265 32.978v0.669H39.29v-0.669zM41.558 31.241v0.689H39.29v-0.689zM42.073 31.241h1.591q0.49 0 0.84 0.147 0.356 0.146 0.546 0.433t0.19 0.706q0 0.343-0.117 0.59a1.1 1.1 0 0 1-0.325 0.406 1.7 1.7 0 0 1-0.49 0.258l-0.278 0.147h-1.383l-5e-3-0.686h1.028a0.8 0.8 0 0 0 0.384-0.082 0.54 0.54 0 0 0 0.228-0.228 0.7 0.7 0 0 0 0.08-0.34 0.8 0.8 0 0 0-0.077-0.355 0.5 0.5 0 0 0-0.231-0.228 0.86 0.86 0 0 0-0.39-0.08h-0.712v3.578h-0.879zM44.458 35.507l-0.973-1.901 0.929-6e-3 0.984 1.866v0.04zM49.072 33.987h-1.087V33.3h1.087a0.9 0.9 0 0 0 0.41-0.082 0.53 0.53 0 0 0 0.232-0.235 0.858 0.858 0 0 0 0-0.691 0.6 0.6 0 0 0-0.232-0.264 0.76 0.76 0 0 0-0.41-0.1H48.29v3.578h-0.879V31.24h1.661q0.5 0 0.859 0.182 0.36 0.178 0.55 0.495 0.19 0.316 0.19 0.724 0 0.413-0.19 0.714-0.19 0.303-0.55 0.466-0.358 0.165-0.859 0.164M54.141 34.819v0.686h-2.27v-0.686zM52.157 31.239v4.266h-0.879V31.24zM53.845 32.976v0.669H51.87v-0.669zM54.138 31.239v0.689H51.87v-0.689zM56.619 31.239v4.266h-0.876V31.24zM57.932 31.239v0.689h-3.48v-0.689zM61.295 34.819v0.686h-2.27v-0.686zM59.312 31.239v4.266h-0.88V31.24zM61 32.978v0.669h-1.975v-0.669zM61.293 31.241v0.689h-2.268v-0.689zM61.809 31.241h1.59q0.49 0 0.841 0.147 0.355 0.146 0.545 0.433t0.19 0.706q0 0.343-0.117 0.59a1.1 1.1 0 0 1-0.325 0.406 1.7 1.7 0 0 1-0.49 0.258l-0.277 0.147h-1.383l-6e-3-0.686h1.028a0.8 0.8 0 0 0 0.384-0.082 0.54 0.54 0 0 0 0.229-0.228 0.7 0.7 0 0 0 0.079-0.34 0.8 0.8 0 0 0-0.076-0.355 0.5 0.5 0 0 0-0.232-0.228 0.86 0.86 0 0 0-0.39-0.08h-0.712v3.578h-0.878zM64.193 35.507l-0.972-1.901 0.928-6e-3 0.985 1.866v0.04zM67.873 34.391a0.6 0.6 0 0 0-0.035-0.206 0.4 0.4 0 0 0-0.123-0.17 1 1 0 0 0-0.255-0.155 4 4 0 0 0-0.425-0.158 5 5 0 0 1-0.55-0.21 2.3 2.3 0 0 1-0.458-0.273 1.2 1.2 0 0 1-0.31-0.367 1 1 0 0 1-0.111-0.483 1 1 0 0 1 0.117-0.483q0.117-0.22 0.328-0.375 0.21-0.159 0.498-0.243 0.29-0.085 0.636-0.085 0.47 0 0.823 0.17 0.351 0.17 0.545 0.465t0.196 0.677h-0.873a0.66 0.66 0 0 0-0.08-0.328 0.54 0.54 0 0 0-0.234-0.226 0.84 0.84 0 0 0-0.392-0.082 0.9 0.9 0 0 0-0.38 0.07 0.5 0.5 0 0 0-0.23 0.185 0.46 0.46 0 0 0-0.076 0.258q0 0.109 0.053 0.196a0.6 0.6 0 0 0 0.164 0.164q0.108 0.077 0.267 0.144 0.158 0.068 0.366 0.132 0.348 0.106 0.612 0.237 0.266 0.132 0.446 0.296 0.178 0.164 0.27 0.372 0.09 0.208 0.09 0.472 0 0.278-0.108 0.498-0.109 0.219-0.314 0.372-0.205 0.152-0.49 0.231-0.283 0.08-0.635 0.08a2.4 2.4 0 0 1-0.624-0.083 1.9 1.9 0 0 1-0.56-0.255 1.3 1.3 0 0 1-0.398-0.433q-0.15-0.264-0.15-0.624h0.883q0 0.2 0.061 0.337a0.56 0.56 0 0 0 0.173 0.222 0.7 0.7 0 0 0 0.27 0.123q0.157 0.039 0.345 0.039a0.9 0.9 0 0 0 0.375-0.065 0.46 0.46 0 0 0 0.293-0.436" />
        </symbol>
        <symbol id="group3" viewBox="0 0 44 42" fill="var(--color0, #afb1b8)">
            <path d="M6.726 40.402q0.024 0 0.046 9e-3a0.1 0.1 0 0 1 0.039 0.024l0.218 0.208c-0.17 0.169-0.379 0.304-0.614 0.396a2.4 2.4 0 0 1-0.87 0.142c-0.28 5e-3-0.558-0.04-0.817-0.133a1.8 1.8 0 0 1-0.616-0.374 1.7 1.7 0 0 1-0.399-0.578 1.9 1.9 0 0 1-0.139-0.742 1.724 1.724 0 0 1 0.573-1.322c0.186-0.163 0.409-0.291 0.654-0.376 0.269-0.09 0.555-0.136 0.843-0.133 0.267-6e-3 0.533 0.035 0.782 0.12 0.216 0.082 0.415 0.195 0.587 0.335L6.83 38.2a0.2 0.2 0 0 1-0.047 0.04 0.12 0.12 0 0 1-0.073 0.017 0.2 0.2 0 0 1-0.08-0.023l-0.097-0.06-0.137-0.075a1.6 1.6 0 0 0-0.43-0.133 2 2 0 0 0-0.325-0.024 1.8 1.8 0 0 0-0.605 0.1c-0.18 0.063-0.341 0.158-0.475 0.28-0.136 0.128-0.24 0.28-0.308 0.445a1.5 1.5 0 0 0-0.111 0.587 1.5 1.5 0 0 0 0.111 0.597q0.102 0.248 0.303 0.443c0.125 0.12 0.28 0.215 0.453 0.275 0.178 0.064 0.369 0.097 0.561 0.095q0.167 3e-3 0.333-0.019a1.3 1.3 0 0 0 0.72-0.306 0.17 0.17 0 0 1 0.103-0.038M13.024 39.354c4e-3 0.251-0.046 0.501-0.147 0.737a1.6 1.6 0 0 1-0.41 0.572 1.9 1.9 0 0 1-0.645 0.375 2.66 2.66 0 0 1-1.658 0 1.9 1.9 0 0 1-0.64-0.376 1.7 1.7 0 0 1-0.415-0.578 1.92 1.92 0 0 1 0-1.476c0.093-0.216 0.234-0.413 0.415-0.58 0.182-0.159 0.4-0.282 0.64-0.363a2.6 2.6 0 0 1 1.658 0c0.242 0.085 0.461 0.214 0.644 0.376 0.179 0.165 0.319 0.36 0.411 0.571 0.101 0.238 0.151 0.489 0.147 0.742M12.452 39.354a1.6 1.6 0 0 0-0.104-0.592 1.22 1.22 0 0 0-0.752-0.723 1.9 1.9 0 0 0-1.205 0 1.3 1.3 0 0 0-0.461 0.28 1.2 1.2 0 0 0-0.295 0.443 1.74 1.74 0 0 0 0 1.184 1.21 1.21 0 0 0 0.756 0.72c0.388 0.127 0.816 0.127 1.205 0 0.175-0.061 0.332-0.156 0.46-0.277 0.131-0.129 0.23-0.28 0.292-0.443 0.073-0.19 0.108-0.391 0.104-0.592M17.321 39.975l0.057 0.132q0.031-0.07 0.063-0.132a1 1 0 0 1 0.071-0.13l1.393-2.201q0.04-0.058 0.08-0.069a0.4 0.4 0 0 1 0.114-0.012h0.412v3.58h-0.488V38.4a1 1 0 0 1 0-0.124l-1.402 2.232a0.2 0.2 0 0 1-0.082 0.081 0.25 0.25 0 0 1-0.12 0.03H17.34a0.24 0.24 0 0 1-0.12-0.03 0.2 0.2 0 0 1-0.081-0.081l-1.443-2.246v2.873h-0.471v-3.572h0.411a0.4 0.4 0 0 1 0.115 0.012q0.052 0.023 0.076 0.069l1.423 2.203q0.042 0.06 0.071 0.128M22.564 39.797v1.34h-0.545v-3.574h1.216q0.347-5e-3 0.679 0.078c0.176 0.044 0.34 0.12 0.48 0.223a0.9 0.9 0 0 1 0.272 0.35c0.065 0.146 0.096 0.302 0.093 0.458q3e-3 0.237-0.1 0.457a1 1 0 0 1-0.295 0.358c-0.14 0.107-0.305 0.188-0.483 0.236a2.3 2.3 0 0 1-0.657 0.083zM22.564 39.413h0.66q0.216 2e-3 0.423-0.054a0.9 0.9 0 0 0 0.305-0.154 0.686 0.686 0 0 0 0.25-0.538 0.6 0.6 0 0 0-0.054-0.291 0.7 0.7 0 0 0-0.19-0.244 1.17 1.17 0 0 0-0.734-0.192h-0.66zM29.893 41.142h-0.43a0.2 0.2 0 0 1-0.12-0.033 0.2 0.2 0 0 1-0.072-0.083l-0.37-0.864h-1.863l-0.384 0.864a0.203 0.203 0 0 1-0.19 0.116h-0.432l1.636-3.58h0.567zM27.193 39.813h1.539l-0.65-1.457q-0.074-0.164-0.122-0.336l-0.063 0.187q-0.03 0.087-0.06 0.152zM32.249 37.58q0.049 0.023 0.081 0.064l2.386 2.698v-2.779h0.488v3.58h-0.272a0.3 0.3 0 0 1-0.112-0.022 0.3 0.3 0 0 1-0.087-0.066l-2.383-2.696a1 1 0 0 1 0 0.123v2.66h-0.488v-3.58h0.289a0.3 0.3 0 0 1 0.098 0.018M39.223 39.719v1.421h-0.545v-1.42l-1.508-2.156h0.488a0.2 0.2 0 0 1 0.117 0.03q0.045 0.036 0.074 0.081l0.943 1.391q0.057 0.089 0.099 0.166 0.04 0.078 0.068 0.151l0.07-0.154q0.04-0.084 0.093-0.163l0.93-1.4a0.4 0.4 0 0 1 0.07-0.076 0.2 0.2 0 0 1 0.118-0.035h0.494zM17.051 31.556q0.357 0.039 0.72 0.066c3.679-1.43 6.791-3.77 8.948-6.728s3.261-6.403 3.177-9.903l-4.054-3.523c0.824 3.727 0.438 7.58-1.114 11.128s-4.21 6.65-7.677 8.96" />
            <path d="M15.604 31.392l0.109 0.02c3.704-2.303 6.528-5.517 8.106-9.228s1.84-7.749 0.75-11.59l-5.775-5.017c2.335 4.124 3.276 8.74 2.71 13.31-0.564 4.57-2.61 8.906-5.9 12.505M35.188 19.127c-0.981 3.846-3.364 7.315-6.795 9.892a21.6 21.6 0 0 1-3.228 2.013c2.794-0.713 5.361-1.974 7.505-3.686s3.807-3.829 4.86-6.187z" />
            <path d="M34.269 18.56l-3.334-2.897c-0.064 3.303-1.145 6.531-3.13 9.348-1.986 2.818-4.804 5.122-8.16 6.673h0.015q1.124-1e-3 2.239-0.116c3.137-1.113 5.909-2.883 8.067-5.153s3.637-4.968 4.303-7.855M16.086 3.461 12.108 0C8.552 1.194 5.494 3.293 3.333 6.022 1.173 8.752 0.011 11.984 0 15.296c0.013 3.66 1.431 7.212 4.03 10.093 2.597 2.881 6.227 4.927 10.314 5.814 3.648-3.862 5.784-8.634 6.098-13.623 0.313-4.99-1.213-9.935-4.356-14.119M43.46 18.027c-0.014-4.342-2.006-8.503-5.54-11.574S29.596 1.652 24.598 1.64a21.2 21.2 0 0 0-6.753 1.092L42.2 23.892a14.35 14.35 0 0 0 1.26-5.865" />
        </symbol>
        <symbol id="group2" viewBox="0 0 40 52" fill="var(--color0, #afb1b8)">
            <path clip-rule="evenodd" d="M17.114 2.935h-0.137c-0.21-0.013-0.42-0.018-0.63-0.023h-0.455c-0.397 0-0.802 0.01-1.204 0.03a1 1 0 0 0-0.092 0A28.3 28.3 0 0 0 4.08 5.625L3.648 5.833v22.142l1.012-0.344c0.888-0.305 1.834-0.58 2.813-0.834a34.3 34.3 0 0 1 8.095-1.075v2.909c-0.362 2e-3-0.713 0.012-1.065 0.03h-0.084a32.4 32.4 0 0 0-6.228 0.956 31.6 31.6 0 0 0-7.42 2.892V4.112a29.7 29.7 0 0 1 7.784-3.166A29.8 29.8 0 0 1 15.892 0h0.427c0.511 0.013 1.01 0.036 1.478 0.071a21 21 0 0 1 3.655 0.583v2.863a22.6 22.6 0 0 0-3.542-0.534l-0.072-6e-3c-0.247-0.021-0.494-0.042-0.725-0.042M22.152 5.861c0.635 0.049 1.292 0.072 1.958 0.072a31.5 31.5 0 0 0 7.713-0.99 31.8 31.8 0 0 0 7.417-2.893v27.89a29.8 29.8 0 0 1-7.786 3.166 30 30 0 0 1-7.337 0.944 22.4 22.4 0 0 1-5.565-0.656V5.322q0.647 0.152 1.323 0.267a25 25 0 0 0 2.277 0.272M36.346 6.078l-1.012 0.34q-1.397 0.469-2.813 0.842a34.3 34.3 0 0 1-8.406 1.078c-0.66 0-1.268-0.018-1.855-0.056l-0.806-0.053v22.777l0.693 0.06c0.642 0.057 1.305 0.085 1.973 0.085a27 27 0 0 0 6.62-0.857 27.8 27.8 0 0 0 5.173-1.86l0.433-0.208z" fill-rule="evenodd" />
            <path d="M2.737 42.212a1.5 1.5 0 0 0-1.125-0.455 1.7 1.7 0 0 0-0.65 0.122 1.463 1.463 0 0 0-0.832 0.842c-0.08 0.2-0.12 0.413-0.117 0.628v3.794c-0.01 0.267 0.042 0.533 0.149 0.778 0.09 0.195 0.219 0.368 0.38 0.509 0.151 0.127 0.33 0.22 0.52 0.27q0.279 0.077 0.567 0.078c0.212 2e-3 0.42-0.043 0.612-0.132a1.6 1.6 0 0 0 0.96-1.465v-0.424H2.209v0.338a0.9 0.9 0 0 1-0.059 0.338 0.6 0.6 0 0 1-0.144 0.214 0.697 0.697 0 0 1-0.415 0.145 0.5 0.5 0 0 1-0.465-0.204 0.9 0.9 0 0 1-0.132-0.508v-3.538c-6e-3-0.196 0.036-0.39 0.122-0.567a0.51 0.51 0 0 1 0.485-0.229 0.53 0.53 0 0 1 0.443 0.214 0.8 0.8 0 0 1 0.165 0.509v0.328H3.19V43.41a1.8 1.8 0 0 0-0.121-0.664 1.6 1.6 0 0 0-0.332-0.534M8.629 42.17a1.77 1.77 0 0 0-1.128-0.418c-0.202 0-0.403 0.037-0.592 0.107q-0.291 0.105-0.524 0.31a1.6 1.6 0 0 0-0.384 0.532c-0.1 0.231-0.15 0.482-0.145 0.734v3.64c-6e-3 0.255 0.043 0.51 0.145 0.744 0.09 0.196 0.22 0.37 0.384 0.509 0.152 0.14 0.33 0.25 0.524 0.32q0.287 0.105 0.592 0.107a1.7 1.7 0 0 0 1.128-0.427c0.158-0.142 0.286-0.315 0.374-0.509 0.102-0.234 0.151-0.489 0.145-0.745v-3.639a1.8 1.8 0 0 0-0.145-0.734 1.6 1.6 0 0 0-0.374-0.532M8.166 47.073A0.65 0.65 0 0 1 7.969 47.6a0.73 0.73 0 0 1-0.934 0 0.65 0.65 0 0 1-0.197-0.527v-3.639a0.65 0.65 0 0 1 0.197-0.526 0.73 0.73 0 0 1 0.934 0 0.65 0.65 0 0 1 0.197 0.526zM16.367 48.7v-6.89h-0.953l-1.253 3.647h-0.017l-1.263-3.646h-0.943v6.888h0.984v-4.19h0.018l0.963 2.962h0.491l0.972-2.962h0.017v4.19zM21.958 42.294c-0.151-0.17-0.343-0.3-0.556-0.377a2.2 2.2 0 0 0-0.714-0.107h-1.462v6.89h0.982v-2.691h0.506c0.306 0.014 0.61-0.051 0.885-0.188a1.43 1.43 0 0 0 0.539-0.527c0.113-0.183 0.19-0.387 0.225-0.6a5 5 0 0 0 0.053-0.783c0.01-0.33-0.023-0.662-0.096-0.984a1.47 1.47 0 0 0-0.362-0.633M21.452 44.394a0.9 0.9 0 0 1-0.09 0.359 0.55 0.55 0 0 1-0.254 0.241 1 1 0 0 1-0.463 0.087h-0.447v-2.342h0.505a0.94 0.94 0 0 1 0.443 0.086 0.56 0.56 0 0 1 0.23 0.254c0.054 0.121 0.083 0.252 0.086 0.384v0.458c0 0.16 0.01 0.326-0.01 0.473zM26.608 41.81h-0.805l-1.518 6.89h0.982l0.288-1.48h1.338l0.289 1.48h0.982zM25.702 46.281l0.483-2.497h0.018l0.48 2.497zM32.95 45.96h-0.018l-1.482-4.15h-0.944v6.89h0.982v-4.143h0.02l1.5 4.142h0.923v-6.888H32.95zM38.948 41.81l-0.79 2.74h-0.02l-0.79-2.74H36.31l1.348 3.978v2.911h0.982v-2.911l1.348-3.977zM0 50.645h0.473v1.327h0.321v-1.328h0.47v-0.272H0zM3.977 50.372l-0.62 1.6h0.341l0.132-0.364h0.637l0.137 0.364h0.35l-0.636-1.6zM3.927 51.339l0.217-0.593 0.217 0.593zM7.908 51.382h0.37v0.206a0.6 0.6 0 0 1-0.38 0.135 0.4 0.4 0 0 1-0.34-0.153 0.67 0.67 0 0 1-0.118-0.417q0-0.534 0.46-0.534a0.34 0.34 0 0 1 0.362 0.255l0.316-0.062q-0.101-0.469-0.678-0.47a0.8 0.8 0 0 0-0.559 0.206 0.78 0.78 0 0 0-0.23 0.615 0.87 0.87 0 0 0 0.205 0.6 0.78 0.78 0 0 0 0.607 0.235 0.96 0.96 0 0 0 0.678-0.255v-0.63H7.908zM11.922 50.372H11.6v1.6h1.12V51.7h-0.797zM15.318 50.372h-0.324v1.6h0.324zM18.636 51.44l-0.655-1.068h-0.314v1.6h0.301v-1.045l0.643 1.045h0.321v-1.6h-0.296zM21.637 51.268h0.797v-0.273h-0.797v-0.35h0.857v-0.273h-1.181v1.6h1.214V51.7h-0.89zM28.912 51.003h-0.63v-0.63h-0.32v1.599h0.32v-0.7h0.63v0.7h0.322v-1.6h-0.322zM31.93 51.268h0.8v-0.273h-0.8v-0.35h0.86v-0.273h-1.18v1.6h1.212V51.7h-0.89zM36.023 51.268q0.419-0.065 0.42-0.445a0.38 0.38 0 0 0-0.157-0.356 0.9 0.9 0 0 0-0.468-0.094H35.14v1.599h0.322v-0.669h0.063a0.4 0.4 0 0 1 0.2 0.036q0.071 0.044 0.114 0.117l0.349 0.508h0.384l-0.195-0.312a1.1 1.1 0 0 0-0.354-0.384M35.699 51.046h-0.237v-0.401h0.253a0.8 0.8 0 0 1 0.326 0.038 0.21 0.21 0 0 1-0.015 0.325 0.9 0.9 0 0 1-0.327 0.038M39.11 51.268h0.796v-0.273H39.11v-0.35h0.86v-0.273h-1.184v1.6H40V51.7h-0.89z" />
        </symbol>
        <symbol id="group" viewBox="0 0 41 47" fill="none">
            <path fill="var(--color0, #afb1b8)" clip-rule="evenodd" d="M6 0l7.008 6.634L0 6.626v32.188h34V26.507l7 6.627V0zM33.692 25.728 13.822 6.918h19.87zM27.523 34.105H5.38V12.459h1.565V32.64h20.578zM10.61 43.1 9.792 44.785 8.974 43.1H8.288l1.194 2.246v1.309h0.62v-1.309l1.191-2.246zM11.638 46.655l0.288-0.828h1.377l0.29 0.828h0.645L12.893 43.1h-0.555l-1.342 3.555zM12.614 43.855l0.515 1.474h-1.03zM15.871 45.244a0.8 0.8 0 0 0-0.134 0.451q0 0.45 0.315 0.73 0.317 0.279 0.845 0.279 0.527 0 0.908-0.286l0.2 0.237h0.688l-0.522-0.618q0.307-0.42 0.307-1.077h-0.515q0 0.36-0.148 0.652l-0.687-0.81 0.242-0.176a1.3 1.3 0 0 0 0.369-0.371 0.8 0.8 0 0 0 0.112-0.41 0.73 0.73 0 0 0-0.249-0.564 0.9 0.9 0 0 0-0.635-0.23q-0.43 0-0.683 0.244-0.255 0.242-0.254 0.66 0 0.17 0.08 0.354 0.084 0.183 0.29 0.444-0.395 0.283-0.529 0.49M17.475 46.029a0.9 0.9 0 0 1-0.561 0.2 0.59 0.59 0 0 1-0.425-0.154 0.53 0.53 0 0 1-0.159-0.4q0-0.285 0.293-0.508l0.076-0.054zM16.838 44.454q-0.252-0.31-0.252-0.515 0-0.178 0.103-0.295a0.35 0.35 0 0 1 0.276-0.118 0.37 0.37 0 0 1 0.266 0.1q0.105 0.099 0.105 0.237a0.44 0.44 0 0 1-0.151 0.345l-0.076 0.06zM22.624 46.385q0.366-0.32 0.42-0.888h-0.615q-0.05 0.38-0.232 0.544-0.184 0.165-0.547 0.164-0.398 0-0.605-0.303t-0.206-0.88v-0.314q6e-3-0.569 0.22-0.862 0.218-0.295 0.62-0.295 0.347 0 0.525 0.17 0.18 0.17 0.225 0.552h0.615q-0.059-0.584-0.418-0.903t-0.947-0.32q-0.437 0-0.771 0.208a1.35 1.35 0 0 0-0.51 0.59 2.1 2.1 0 0 0-0.179 0.887v0.332q8e-3 0.49 0.183 0.862 0.177 0.37 0.498 0.573 0.325 0.2 0.75 0.2 0.608 0 0.974-0.317M26.254 45.887q0.18-0.396 0.181-0.918v-0.197a2.15 2.15 0 0 0-0.186-0.911 1.36 1.36 0 0 0-0.52-0.6q-0.334-0.21-0.769-0.21-0.434 0-0.771 0.212-0.334 0.21-0.52 0.608a2.2 2.2 0 0 0-0.183 0.918v0.2q3e-3 0.51 0.185 0.9 0.186 0.391 0.523 0.604 0.339 0.21 0.771 0.21 0.438 0 0.772-0.21 0.336-0.213 0.517-0.606M25.593 43.877q0.224 0.316 0.224 0.907v0.185q0 0.6-0.222 0.913-0.219 0.313-0.63 0.313a0.74 0.74 0 0 1-0.634-0.32q-0.227-0.32-0.227-0.906v-0.205q5e-3-0.573 0.229-0.886a0.73 0.73 0 0 1 0.627-0.315q0.411 0 0.633 0.315" fill-rule="evenodd" />
        </symbol>
        <symbol id="facebook1" viewBox="0 0 20 20" fill="none">
            <path fill="var(--color0, #afb1b8)" d="M13.33 3.32h1.827V0.14A24 24 0 0 0 12.497 0C9.864 0 8.06 1.656 8.06 4.7v2.8H5.156v3.555H8.06V20h3.562v-8.944h2.787l0.443-3.555h-3.231V5.05c0-1.027 0.277-1.73 1.709-1.73" />
        </symbol>
        <symbol id="envelope" viewBox="0 0 16 12" fill="none">
            <path fill="var(--color1, #757575)" d="M14.5 0h-13C0.673 0 0 0.673 0 1.5v9C0 11.327 0.673 12 1.5 12h13c0.827 0 1.5-0.673 1.5-1.5v-9C16 0.673 15.327 0 14.5 0M14.5 1q0.103 0 0.192 0.039L8 6.839l-6.692-5.8A0.5 0.5 0 0 1 1.5 1zM14.5 11h-13A0.5 0.5 0 0 1 1 10.5V2.095l6.672 5.783a0.5 0.5 0 0 0 0.656 0L15 2.095V10.5a0.5 0.5 0 0 1-0.5 0.5" />
        </symbol>
        <symbol id="diagram1" viewBox="0 0 70 70" fill="none">
            <g clip-path="url(#a1)">
                <path fill="var(--color3, #2196f3)" d="M32.65 32.735h2.332V43.23H32.65zM41.978 37.4h2.332v5.83h-2.332zM23.321 40.898h2.332v2.332h-2.332zM16.325 39.731h2.332v3.499h-2.332z" />
                <path fill="var(--color2, #212121)" d="M3.498 61.887h55.97a3.5 3.5 0 0 0 3.499-3.499v-4.664a3.5 3.5 0 0 0-3.498-3.498h-1.166v-29.08l6.623-6.273a3.518 3.518 0 1 0-1.633-1.67l-4.99 4.732v-2.69a3.5 3.5 0 0 0-3.498-3.499H8.162a3.5 3.5 0 0 0-3.498 3.498v34.982H3.498A3.5 3.5 0 0 0 0 53.724v4.664a3.5 3.5 0 0 0 3.498 3.499M66.465 10.58a1.166 1.166 0 1 1 0 2.332 1.166 1.166 0 0 1 0-2.332M6.996 15.244c0-0.644 0.522-1.166 1.166-1.166h46.643c0.644 0 1.166 0.522 1.166 1.166v4.897l-2.332 2.216v-4.78c0-0.645-0.523-1.167-1.167-1.167H10.496c-0.644 0-1.167 0.522-1.167 1.166v29.152c0 0.644 0.523 1.166 1.167 1.166h41.977c0.645 0 1.167-0.522 1.167-1.166V25.565l2.332-2.21v26.87H6.996zM17.491 30.403a3.498 3.498 0 1 0 2.422 6.012l4.053 2.034c0.471 0.235 1.042 0.125 1.392-0.268l8.616-9.694 8.47 6.347c0.455 0.34 1.089 0.304 1.501-0.086l7.361-6.973v17.787H11.661v-26.82h39.646v5.82l-8.25 7.813-8.542-6.403a1.167 1.167 0 0 0-1.57 0.157l-8.735 9.828-3.265-1.633q0.035-0.21 0.044-0.423a3.5 3.5 0 0 0-3.498-3.498M18.657 33.901a1.166 1.166 0 1 1-2.332 0 1.166 1.166 0 0 1 2.332 0M25.653 52.558h11.66v1.166c0 0.644-0.521 1.166-1.165 1.166h-9.329a1.166 1.166 0 0 1-1.166-1.166zM2.333 53.724c0-0.644 0.521-1.166 1.165-1.166h19.823v1.166a3.5 3.5 0 0 0 3.498 3.498h9.329a3.5 3.5 0 0 0 3.498-3.498v-1.166h19.823c0.644 0 1.166 0.522 1.166 1.166v4.664c0 0.644-0.522 1.166-1.166 1.166H3.499a1.166 1.166 0 0 1-1.167-1.166z" />
            </g>
            <defs>
                <clipPath id="a1">
                    <path fill="#fff" d="M0 0h70v70H0z" />
                </clipPath>
            </defs>
        </symbol>
        <symbol id="clock1" viewBox="0 0 70 70" fill="none">
            <path fill="var(--color2, #212121)" d="M68.461 33.472C68.458 14.982 53.466-5e-3 34.975 0 16.485 4e-3 1.5 14.996 1.504 33.486A33.48 33.48 0 0 0 24.799 65.37q0.2 0.063 0.41 0.063c0.263 0 0.521-0.071 0.748-0.205 0.296-0.175 0.516-0.453 0.62-0.78l8.455-26.797a4.184 4.184 0 1 0-1.838-7.95L22.025 18.53a1.395 1.395 0 0 0-1.972 1.973l11.163 11.176a4.104 4.104 0 0 0 1.173 5.051l-8.055 25.535C8.414 56.4 0.262 38.74 6.126 22.82S29.65-1.252 45.571 4.613 69.643 28.137 63.778 44.057A30.72 30.72 0 0 1 47.455 61.5l-0.87-4.1a1.394 1.394 0 0 0-2.294-0.751l-8.393 7.493a1.394 1.394 0 0 0 0.505 2.372l10.716 3.42a1.394 1.394 0 0 0 1.791-1.619l-0.855-4.022a33.37 33.37 0 0 0 20.406-30.82M34.983 32.078a1.395 1.395 0 1 1 0 2.79 1.395 1.395 0 0 1 0-2.79M39.577 64.593l4.778-4.262 1.319 6.213z" />
            <path fill="var(--color3, #2196f3)" d="M33.588 6.967v2.79a1.395 1.395 0 1 0 2.79 0v-2.79a1.395 1.395 0 0 0-2.79 0M8.479 32.077a1.395 1.395 0 0 0 0 2.79h2.79a1.395 1.395 0 1 0 0-2.79zM61.487 34.867a1.395 1.395 0 1 0 0-2.79h-2.79a1.395 1.395 0 0 0 0 2.79z" />
        </symbol>
        <symbol id="astronaut1" viewBox="0 0 70 70" fill="var(--color2, #212121)">
            <path fill="var(--color3, #2196f3)" d="M69.943 9.896a1.17 1.17 0 0 0-0.941-0.793l-4.18-0.608-1.87-3.787c-0.391-0.798-1.7-0.798-2.091 0l-1.87 3.787-4.18 0.608a1.167 1.167 0 0 0-0.648 1.99l3.026 2.948-0.714 4.162c-0.075 0.438 0.105 0.88 0.463 1.142 0.363 0.263 0.837 0.296 1.23 0.088l3.738-1.966 3.738 1.966a1.169 1.169 0 0 0 1.693-1.23l-0.714-4.162 3.025-2.949a1.17 1.17 0 0 0 0.295-1.196M64.556 12.8c-0.275 0.267-0.4 0.655-0.335 1.033l0.417 2.437-2.188-1.15a1.16 1.16 0 0 0-1.088 0l-2.188 1.15 0.417-2.437a1.17 1.17 0 0 0-0.335-1.033l-1.772-1.727 2.448-0.355c0.38-0.055 0.708-0.294 0.878-0.639l1.095-2.216 1.094 2.216c0.17 0.345 0.498 0.584 0.879 0.639l2.447 0.355zM57.167 44.892h-2.334v2.334h2.334zM57.167 49.56h-2.334v2.332h2.334zM59.5 47.226h-2.333v2.333H59.5z" />
            <path fill="var(--color3, #2196f3)" d="M54.834 47.226H52.5v2.333h2.334zM49 57.726h-2.333v2.333H49zM49 62.393h-2.333v2.333H49zM51.334 60.06H49v2.333h2.334zM46.667 60.06h-2.334v2.333h2.334zM35 53.06h-2.333v2.333H35zM35 57.726h-2.333v2.333H35zM37.333 55.393H35v2.333h2.333zM32.667 55.393h-2.334v2.333h2.334zM12.833 13.392H10.5v2.333h2.333zM12.833 18.059H10.5v2.333h2.333zM15.166 15.725h-2.333v2.334h2.333zM10.5 15.725H8.166v2.334H10.5z" />
            <path d="M54.064 30.974a3.88 3.88 0 0 0-2.6-1.541 3.89 3.89 0 0 0-2.93 0.77l-2.74 2.097-1e-3 2e-3-4.151 3.1-2.97-1.184c5.296-2.376 8.998-7.674 8.998-13.825 0-8.363-6.83-15.167-15.227-15.167S17.215 12.03 17.215 20.393c0 3.031 0.907 5.85 2.45 8.222l-6.046-0.053h-0.01c-0.019 0-0.034 0.01-0.051 0.01a1.1 1.1 0 0 0-0.34 0.069c-0.028 0.01-0.057 0.016-0.084 0.029-0.014 6e-3-0.028 7e-3-0.042 0.014L6.02 32.175q-2e-3 0-3e-3 2e-3l-4.141 1.991a1 1 0 0 0-0.138 0.077 3.895 3.895 0 0 0-1.308 5.023 3.88 3.88 0 0 0 2.31 1.944 3.891 3.891 0 0 0 3.016-0.281l3.036-1.614 4.952-2.558 2.968-0.017L4.808 48.588q0 2e-3-3e-3 3e-3l-2.929 2.916a3.6 3.6 0 0 0-1.072 2.577c0 0.972 0.38 1.888 1.072 2.578a3.65 3.65 0 0 0 2.58 1.062c0.936 0 1.869-0.355 2.582-1.062l2.875-2.863 3.808-2.843 1.97 1.962-3.854 3.837-3e-3 2e-3-2.928 2.917a3.6 3.6 0 0 0-1.073 2.576c0 0.973 0.38 1.889 1.073 2.579a3.65 3.65 0 0 0 2.58 1.061c0.935 0 1.87-0.354 2.582-1.061l2.93-2.917 4.686-4.667 2e-3-3e-3 2.21-2.188-0.01-8e-3c0.015-0.014 0.035-0.019 0.049-0.034l11.3-12.377 7.593 1.08q0.083 0.012 0.164 0.012c0.142 0 0.278-0.034 0.41-0.084 0.039-0.014 0.072-0.033 0.109-0.051 0.042-0.021 0.086-0.033 0.126-0.06l7.029-4.666c0.026-0.018 0.04-0.046 0.064-0.065 0.028-0.022 0.063-0.031 0.089-0.056l2.78-2.605a3.89 3.89 0 0 0 0.465-5.166M4.66 38.872a1.56 1.56 0 0 1-1.221 0.113 1.565 1.565 0 0 1-0.465-2.755l2.874-1.383 0.692 2.022 0.29 0.85zM12.31 34.874l-3.387 1.75-0.558-1.633-0.402-1.174 4.434-2.189zM45.34 20.392c0 2.009-0.48 3.904-1.31 5.599l-9.147-4.155a4.07 4.07 0 0 0-1.724-3.035L36.36 8.168c5.202 1.655 8.98 6.507 8.98 12.224M19.552 20.392c0-7.076 5.784-12.834 12.894-12.834 0.553 0 1.094 0.047 1.63 0.115L30.943 18.07c-0.042 0-0.081-0.013-0.125-0.013a4.094 4.094 0 0 0-4.096 4.084 4.094 4.094 0 0 0 4.096 4.083c1.52 0 2.832-0.838 3.54-2.066l8.45 3.839c-2.352 3.163-6.114 5.227-10.362 5.227-7.11 0-12.894-5.757-12.894-12.833M32.582 22.141c0 0.965-0.792 1.75-1.764 1.75a1.76 1.76 0 0 1-1.762-1.75c0-0.965 0.79-1.75 1.762-1.75s1.763 0.785 1.763 1.75M5.391 55.007a1.33 1.33 0 0 1-1.87 2e-3 1.3 1.3 0 0 1 0-1.847l2.105-2.097 1.864 1.855zM12.421 63.174a1.33 1.33 0 0 1-1.87 2e-3 1.3 1.3 0 0 1 0-1.847l2.106-2.098 0.88 0.876 0.983 0.978zM20.037 55.586l-3e-3 3e-3-3.86 3.85-0.882-0.877-0.982-0.977 3.857-3.84v-1e-3l4e-3-2e-3c0.087-0.088 0.142-0.193 0.196-0.297 0.015-0.03 0.044-0.056 0.057-0.087 0.036-0.09 0.042-0.187 0.056-0.281 7e-3-0.054 0.03-0.104 0.03-0.16 0-0.077-0.028-0.153-0.044-0.23-0.014-0.07-0.014-0.141-0.041-0.209a1.2 1.2 0 0 0-0.2-0.301c-0.022-0.026-0.03-0.058-0.054-0.083h-2e-3q0-1e-3-2e-3-5e-3l-3.515-3.5c-0.037-0.037-0.085-0.052-0.127-0.084a1 1 0 0 0-0.19-0.126 1 1 0 0 0-0.205-0.07 1 1 0 0 0-0.225-0.044 1 1 0 0 0-0.209 0.01c-0.078 0.01-0.151 0.02-0.227 0.045-0.074 0.023-0.139 0.06-0.207 0.098-0.043 0.024-0.092 0.033-0.133 0.063L9.25 51.377 7.28 49.414l5.248-5.22 9.538 9.382zM34.953 40.237c-0.033-5e-3-0.065 8e-3-0.099 6e-3a1.2 1.2 0 0 0-0.252 0.015q-0.099 0.016-0.192 0.047a1 1 0 0 0-0.211 0.102 1 1 0 0 0-0.182 0.135c-0.028 0.024-0.062 0.036-0.088 0.064L23.653 51.862l-9.468-9.311 6.198-6.165a1.168 1.168 0 0 0-0.831-1.993l-4.854 0.028 0.061-3.516 6.79 0.058a15.2 15.2 0 0 0 10.897 4.596c0.957 0 1.89-0.1 2.799-0.268 0.087 0.07 0.174 0.14 0.283 0.185l5.272 2.1 0.333 1.659 0.39 1.937zM43.793 40.627l-0.684-3.408 3.164-2.363 0.828 1.1 1.242 1.649zM52.005 34.434l-1.833 1.717-2.037-2.704 1.818-1.394c0.34-0.261 0.768-0.368 1.188-0.313 0.422 0.06 0.796 0.28 1.05 0.622a1.56 1.56 0 0 1-0.187 2.072" />
            <path d="M29.755 40.565l-4.688-4.667a1.166 1.166 0 0 0-1.646 0l-4.687 4.667a1.17 1.17 0 0 0 0 1.654l4.686 4.667a1.166 1.166 0 0 0 1.647 0l4.688-4.667a1.167 1.167 0 0 0 0-1.654M24.245 44.413l-3.034-3.02 3.033-3.021 3.035 3.02zM37.547 11.092l-0.564 2.266c0.156 0.039 3.801 0.988 3.801 4.7h2.334c0-4.412-3.644-6.486-5.571-6.966M43.118 20.392h-2.334v2.333h2.334z" />
        </symbol>
        <symbol id="antenna1" viewBox="0 0 70 70" fill="none">
            <path fill="var(--color2, #212121)" d="M67.316 48.339 48.846 29.734l2.05-10.097a4.7 4.7 0 0 0 1.66 0.319h0.014a4.723 4.723 0 1 0-4.394-3.14l-10.85 1.325L19.628 0.35A1.17 1.17 0 0 0 18.804 0c-0.306 2e-3-0.6 0.124-0.817 0.34L14.68 3.63a1.167 1.167 0 0 0 0 1.65l1.78 1.805a32.69 32.69 0 0 0 5.511 38.638q0.142 0.135 0.32 0.213a7 7 0 0 0-0.114 1.197v13.534h-14A5.84 5.84 0 0 0 2.342 66.5v2.333C2.342 69.478 2.865 70 3.509 70h53.667c0.644 0 1.166-0.522 1.166-1.167V66.5a5.84 5.84 0 0 0-5.833-5.833h-14v-5.998c2.193 0.46 4.428 0.694 6.669 0.7a32.5 32.5 0 0 0 15.4-3.901l1.79 1.8c0.216 0.221 0.513 0.347 0.823 0.35 0.306-2e-3 0.6-0.124 0.817-0.34l3.308-3.29a1.167 1.167 0 0 0 0-1.65M50.925 13.635a2.333 2.333 0 1 1 1.645 3.987h-8e-3a2.333 2.333 0 0 1-1.637-3.987zM48.178 21.3l-1.309 6.444-2.571-2.587zM46.853 19.327l-4.2 4.176-3.25-3.267zM52.509 63a3.5 3.5 0 0 1 3.5 3.5v1.167H4.676V66.5a3.5 3.5 0 0 1 3.5-3.5zM36.176 58.333v2.334H24.509v-2.334zM24.509 56v-8.867c0-2.83 2.617-5.133 5.833-5.133s5.834 2.303 5.834 5.133V56zM38.509 52.29v-5.157c0-4.117-3.663-7.466-8.167-7.466a8.31 8.31 0 0 0-7.177 3.907A30.34 30.34 0 0 1 18.18 8.82l40.692 40.925a30.23 30.23 0 0 1-20.363 2.544M63.204 50.793 61.56 49.14 18.792 6.116l-1.65-1.655 1.65-1.645 17.358 17.456c8e-3 0 0.013 0.015 0.021 0.021l28.688 28.856z" />
            <path fill="var(--color3, #2196f3)" d="M30.353 44.333h-0.01a3.5 3.5 0 1 0-0.011 7h0.01a3.5 3.5 0 1 0 0.01-7M31.168 48.661a1.167 1.167 0 1 1-0.827-1.994 1.166 1.166 0 0 1 0.827 1.994z" />
        </symbol>
    </defs>
</svg>