<svg xmlns="http://www.w3.org/2000/svg" aria-hidden="true" style="position:absolute;width:0;height:0;overflow:hidden"><defs><symbol id="linkedin1" fill="none" viewBox="0 0 20 20"><g fill="var(--color0, #afb1b8)" clip-path="url(#clip0_1_2318)"><path d="M19.995 20H20v-7.336c0-3.588-.772-6.352-4.967-6.352-2.017 0-3.37 1.106-3.923 2.155h-.058v-1.82H7.074v13.352h4.142v-6.611c0-1.741.33-3.425 2.486-3.425 2.124 0 2.156 1.987 2.156 3.536V20zM.33 6.648h4.147V20H.33zM2.402 0A2.4 2.4 0 0 0 0 2.402c0 1.326 1.076 2.424 2.402 2.424s2.401-1.098 2.401-2.424A2.403 2.403 0 0 0 2.402 0"/></g><defs><clipPath id="clip0_1_2318"><path fill="#fff" d="M0 0h20v20H0z"/></clipPath></defs></symbol><symbol id="diagram1" fill="none" viewBox="0 0 70 70"><g fill="var(--color3, #2196f3)" clip-path="url(#clip0_1_3768)"><path d="M32.65 32.735h2.332V43.23H32.65zM41.978 37.4h2.332v5.83h-2.332zM23.321 40.898h2.332v2.332h-2.332zM16.325 39.731h2.332v3.498h-2.332z"/><path fill="var(--color2, #212121)" d="M3.498 61.887h55.97a3.5 3.5 0 0 0 3.499-3.499v-4.664a3.5 3.5 0 0 0-3.498-3.498h-1.166v-29.08l6.623-6.273a3.518 3.518 0 1 0-1.633-1.67l-4.99 4.732v-2.69a3.5 3.5 0 0 0-3.498-3.499H8.162a3.5 3.5 0 0 0-3.498 3.498v34.982H3.498A3.5 3.5 0 0 0 0 53.724v4.664a3.5 3.5 0 0 0 3.498 3.499M66.465 10.58a1.166 1.166 0 1 1 0 2.332 1.166 1.166 0 0 1 0-2.332M6.996 15.244c0-.644.522-1.166 1.166-1.166h46.643c.644 0 1.166.522 1.166 1.166v4.897l-2.332 2.216v-4.78c0-.645-.522-1.167-1.166-1.167H10.495c-.644 0-1.167.522-1.167 1.166v29.152c0 .644.523 1.166 1.167 1.166h41.978c.644 0 1.166-.522 1.166-1.166V25.565l2.332-2.21v26.87H6.996zm10.495 15.159a3.498 3.498 0 1 0 2.422 6.012l4.053 2.034c.471.235 1.042.125 1.392-.268l8.616-9.694 8.47 6.347c.455.34 1.089.304 1.501-.086l7.361-6.973v17.787H11.661v-26.82h39.646v5.82l-8.25 7.813-8.542-6.403a1.167 1.167 0 0 0-1.57.157l-8.735 9.828-3.265-1.633q.035-.21.044-.423a3.5 3.5 0 0 0-3.498-3.498m1.166 3.498a1.166 1.166 0 1 1-2.332 0 1.166 1.166 0 0 1 2.332 0m6.996 18.657h11.66v1.166c0 .644-.521 1.166-1.165 1.166h-9.329a1.166 1.166 0 0 1-1.166-1.166zm-23.32 1.166c0-.644.521-1.166 1.165-1.166h19.823v1.166a3.5 3.5 0 0 0 3.498 3.498h9.329a3.5 3.5 0 0 0 3.498-3.498v-1.166h19.823c.644 0 1.166.522 1.166 1.166v4.664c0 .644-.522 1.166-1.166 1.166H3.499a1.166 1.166 0 0 1-1.167-1.166z"/></g><defs><clipPath id="clip0_1_3768"><path fill="#fff" d="M0 0h70v70H0z"/></clipPath></defs></symbol></defs></svg>